<svg width="24" height="24" viewBox="0 0 24 24" fill="none" xmlns="http://www.w3.org/2000/svg">
<path fill-rule="evenodd" clip-rule="evenodd" d="M19.0921 12.0206C20.8026 10.3101 21.0147 7.66868 19.7284 5.72731L21.2134 4.24234L19.7992 2.82812L18.3142 4.31312C16.3728 3.02697 13.7315 3.23912 12.021 4.94955L9.8997 7.07088L16.9708 14.1419L19.0921 12.0206ZM5.7277 19.728L4.24283 21.2129L2.82861 19.7987L4.3135 18.3138C3.02731 16.3724 3.23945 13.7311 4.9499 12.0206L7.07122 9.89928L14.1423 16.9703L12.021 19.0917C10.3105 20.8021 7.66907 21.0143 5.7277 19.728ZM7.77838 10.6063L9.1926 9.19209L10.6068 10.6063L9.1926 12.0205L7.77838 10.6063ZM13.4352 13.4348L12.021 14.849L13.4352 16.2632L14.8494 14.849L13.4352 13.4348Z" fill="#A0B4D6"/>
</svg>
