<svg width="140" height="28" viewBox="0 0 140 28" fill="none" xmlns="http://www.w3.org/2000/svg">
<path d="M0 28H27.8609V0H0V28Z" fill="#1688CA"/>
<path d="M18.1995 7.2587H9.66118V5.38892H6.81729V11.8664H9.66118V9.99659H18.1995V11.8664H21.0434V5.38892H18.1995V7.2587ZM15.3556 16.6811H18.1995V19.4189H9.66118V16.6811H12.5051V12.2069H15.349V16.6811H15.3556ZM5.35547 22.6109V15.6794L8.19937 16.6877V22.6109H5.35547ZM19.6547 22.6109V16.6877L22.4986 15.6794V22.6109H19.6547Z" fill="white"/>
<path d="M35.8077 4.40726H34.1133V3.53247H38.4522V4.40726H36.7578V8.90809H35.8077V4.40726Z" fill="white"/>
<path d="M39.4482 3.53247H41.8337C42.5048 3.53247 43.0297 3.7328 43.3752 4.06669C43.6609 4.36052 43.8204 4.75451 43.8204 5.22863V5.24198C43.8204 6.12345 43.2955 6.65768 42.5446 6.87137L43.9865 8.90809H42.8769L41.5612 7.03163H40.3851V8.90809H39.4482V3.53247ZM41.7606 6.19691C42.4317 6.19691 42.8636 5.84299 42.8636 5.30208V5.28205C42.8636 4.70776 42.4516 4.39391 41.7539 4.39391H40.3851V6.19691H41.7606Z" fill="white"/>
<path d="M44.8843 6.63096V3.53247H45.8212V6.5909C45.8212 7.58589 46.3328 8.12679 47.17 8.12679C48.0006 8.12679 48.5122 7.61928 48.5122 6.63096V3.53247H49.4491V6.57754C49.4491 8.18021 48.5455 8.98822 47.1501 8.98822C45.7747 8.9949 44.8843 8.18689 44.8843 6.63096Z" fill="white"/>
<path d="M50.5186 6.23706V6.2237C50.5186 4.69449 51.6548 3.44574 53.2761 3.44574C54.2595 3.44574 54.8575 3.79298 55.3691 4.28046L54.7645 4.98163C54.3392 4.58096 53.8807 4.31385 53.2694 4.31385C52.2462 4.31385 51.502 5.15525 51.502 6.21034V6.2237C51.502 7.27211 52.2462 8.13355 53.2694 8.13355C53.9273 8.13355 54.3459 7.86644 54.8043 7.43238L55.409 8.04674C54.8509 8.6277 54.2396 9.00166 53.2362 9.00166C51.6814 9.00166 50.5186 7.77962 50.5186 6.23706Z" fill="white"/>
<path d="M56.3926 3.53247H57.3295V6.23698L59.8744 3.53247H61.0305L58.8046 5.84299L61.1302 8.90809H59.994L58.1667 6.49073L57.3361 7.35217V8.90809H56.3992V3.53247H56.3926Z" fill="white"/>
<path d="M61.9341 3.53247H65.9009V4.37387H62.8776V5.76953H65.562V6.61093H62.8776V8.05333H65.9408V8.89473H61.9407V3.53247H61.9341Z" fill="white"/>
<path d="M67.0503 3.53247H69.4357C70.1068 3.53247 70.6317 3.7328 70.9773 4.06669C71.263 4.36052 71.4225 4.75451 71.4225 5.22863V5.24198C71.4225 6.12345 70.8975 6.65768 70.1467 6.87137L71.5886 8.90809H70.4789L69.1633 7.03163H67.9872V8.90809H67.0503V3.53247ZM69.3693 6.19691C70.0404 6.19691 70.4723 5.84299 70.4723 5.30208V5.28205C70.4723 4.70776 70.0603 4.39391 69.3626 4.39391H67.9938V6.19691H69.3693Z" fill="white"/>
<path d="M74.8711 3.53247H76.9774C78.22 3.53247 79.0107 4.24699 79.0107 5.3288V5.34215C79.0107 6.55083 78.0472 7.17854 76.8711 7.17854H75.808V8.90809H74.8711V3.53247ZM76.9043 6.33046C77.6153 6.33046 78.0605 5.9298 78.0605 5.36886V5.35551C78.0605 4.7278 77.6087 4.39391 76.9043 4.39391H75.8146V6.33046H76.9043Z" fill="white"/>
<path d="M81.3359 3.49921H82.2063L84.5585 8.91489H83.5685L83.0236 7.6194H80.492L79.9405 8.91489H78.9771L81.3359 3.49921ZM82.6781 6.778L81.7545 4.62775L80.8376 6.778H82.6781Z" fill="white"/>
<path d="M86.1006 4.40726H84.4062V3.53247H88.7452V4.40726H87.0508V8.90809H86.1006V4.40726Z" fill="white"/>
<path d="M89.7417 3.53247H90.6786V5.76953H93.2301V3.53247H94.167V8.90809H93.2301V6.64432H90.6786V8.90809H89.7417V3.53247Z" fill="white"/>
<path fill-rule="evenodd" clip-rule="evenodd" d="M135.695 24.2517C134.06 24.2517 132.259 23.6707 131.229 23.063L132.685 20.6524C133.715 21.22 134.844 21.5672 135.661 21.5672C136.678 21.5672 136.758 21.0664 136.758 20.9128C136.758 20.412 136.107 20.2517 135.21 20.038C133.615 19.6507 131.435 19.1298 131.435 16.5322C131.435 15.6173 131.808 14.7759 132.485 14.1749C133.223 13.5138 134.273 13.1666 135.515 13.1666C136.811 13.1666 138.047 13.4604 139.502 14.1148L138.419 16.4787C137.495 16.0514 136.585 15.831 135.715 15.831C134.751 15.831 134.678 16.3318 134.678 16.4854C134.678 16.9729 135.316 17.1198 136.193 17.3268C136.97 17.5071 137.934 17.7342 138.698 18.2484C139.575 18.8427 140 19.6974 140 20.8594C140 21.821 139.635 22.6423 138.937 23.2433C138.18 23.9044 137.057 24.2517 135.695 24.2517Z" fill="white"/>
<path fill-rule="evenodd" clip-rule="evenodd" d="M112.279 19.5504L113.475 16.5187L114.651 19.5504H112.279ZM114.91 13.0195H112.079L107.561 23.7507H110.651L111.408 21.8476H115.501L116.272 23.7507H119.422L114.91 13.0195Z" fill="white"/>
<path fill-rule="evenodd" clip-rule="evenodd" d="M48.7362 18.1481L50.703 23.684H53.8924L52.1714 19.9711C53.4871 19.4102 54.3509 18.3284 54.3509 16.699V16.6656C54.3509 15.6172 54.0319 14.7958 53.414 14.1882C52.703 13.4603 51.5801 13.0329 49.9588 13.0329H44.9487V23.6906H47.8857V15.5905H49.806C50.796 15.5905 51.4007 16.0112 51.4007 16.8526V16.886C51.4007 17.6606 50.8226 18.1481 49.8259 18.1481H48.7362Z" fill="white"/>
<path fill-rule="evenodd" clip-rule="evenodd" d="M62.5897 13.0329V19.0362C62.5897 20.5254 61.8189 21.2265 60.6362 21.2265C59.4534 21.2265 58.6827 20.4987 58.6827 18.9561V13.0329H55.6992V19.0162C55.6992 22.3484 57.5929 23.891 60.6096 23.891C63.6262 23.891 65.5798 22.3818 65.5798 18.9361V13.0329H62.5897Z" fill="white"/>
<path fill-rule="evenodd" clip-rule="evenodd" d="M74.909 19.9111C74.2711 20.6857 73.6199 21.2066 72.5103 21.2066C71.0285 21.2066 69.9853 19.9578 69.9853 18.3618V18.3284C69.9853 16.7725 71.0285 15.5104 72.5103 15.5104C73.1681 15.5104 73.6864 15.7108 74.1316 16.058C74.1316 16.058 74.5302 16.2984 74.816 16.7792L77.0353 15.043C76.0984 13.7341 74.703 12.8193 72.5369 12.8193C69.3275 12.8193 66.9487 15.2567 66.9487 18.3618V18.3952C66.9487 21.5739 69.3873 23.9044 72.4173 23.9044C74.7694 23.9044 76.1183 22.8827 77.115 21.4937L74.909 19.9111Z" fill="white"/>
<path fill-rule="evenodd" clip-rule="evenodd" d="M102.278 12.8193C99.0691 12.8193 96.7368 15.2567 96.7368 18.3618V18.3952C96.7368 21.5739 99.2551 23.9044 102.278 23.9044V21.2066C100.797 21.2066 99.7668 19.9578 99.7668 18.3618V18.3284C99.7668 16.7725 100.797 15.5104 102.278 15.5104V12.8193ZM102.278 15.5171C103.76 15.5171 104.79 16.7792 104.79 18.3351V18.3685C104.79 19.9645 103.76 21.2133 102.278 21.2133V23.9111C105.308 23.9111 107.82 21.5805 107.82 18.4019V18.3618C107.82 15.2567 105.488 12.8193 102.278 12.8193V15.5171Z" fill="white"/>
<path fill-rule="evenodd" clip-rule="evenodd" d="M84.431 17.6139L88.451 13.0329H84.9626L81.3147 17.3534V13.0329H78.3711V23.684H81.3147V20.9327L82.3911 19.7307L85.0556 23.684H88.5839L84.431 17.6139Z" fill="white"/>
<path fill-rule="evenodd" clip-rule="evenodd" d="M92.3378 13.0329H89.4341V23.684H96.6568L96.1119 21.1731H92.3378V13.0329Z" fill="white"/>
<path fill-rule="evenodd" clip-rule="evenodd" d="M37.5466 15.6172H34.6163L34.1113 13.0329H43.6663V15.6172H40.4835V23.684H37.5466V15.6172Z" fill="white"/>
<path fill-rule="evenodd" clip-rule="evenodd" d="M123.561 23.7776H120.598V13.0464H124.126C128.066 13.0464 130.119 14.9629 130.119 18.3085C130.119 21.6541 128.378 23.6106 124.638 23.7709L124.259 21.1132H124.458C125.973 21.1132 126.717 20.038 126.717 18.3552C126.717 16.7592 125.913 15.7175 124.458 15.7175H123.548L123.561 23.7776Z" fill="white"/>
</svg>
