<svg width="24" height="24" viewBox="0 0 24 24" fill="none" xmlns="http://www.w3.org/2000/svg">
<path fill-rule="evenodd" clip-rule="evenodd" d="M4.5 6C4.5 5.44772 4.94772 5 5.5 5H18.5C19.0523 5 19.5 5.44772 19.5 6C19.5 6.55228 19.0523 7 18.5 7H5.5C4.94772 7 4.5 6.55228 4.5 6ZM14.4681 11.6723C14.2406 11.8315 14.2406 12.1685 14.4681 12.3277L18.3706 15.0594C18.6357 15.245 19 15.0553 19 14.7317V9.26826C19 8.94465 18.6357 8.75499 18.3706 8.94057L14.4681 11.6723ZM5.5 9C4.94772 9 4.5 9.44772 4.5 10C4.5 10.5523 4.94772 11 5.5 11H11.5C12.0523 11 12.5 10.5523 12.5 10C12.5 9.44772 12.0523 9 11.5 9H5.5ZM4.5 14C4.5 13.4477 4.94772 13 5.5 13H11.5C12.0523 13 12.5 13.4477 12.5 14C12.5 14.5523 12.0523 15 11.5 15H5.5C4.94772 15 4.5 14.5523 4.5 14ZM5.5 17C4.94772 17 4.5 17.4477 4.5 18C4.5 18.5523 4.94772 19 5.5 19H18.5C19.0523 19 19.5 18.5523 19.5 18C19.5 17.4477 19.0523 17 18.5 17H5.5Z" fill="#4C556C"/>
</svg>
