<svg width="16" height="16" viewBox="0 0 16 16" fill="none" xmlns="http://www.w3.org/2000/svg">
<path d="M8 1C11 1 13.6 2.9 14.6 5.7C14.8 6.2 14.5 6.8 14 7C13.5 7.2 12.9 6.9 12.7 6.4C12 4.4 10.1 3 8 3C5.2 3 3 5.2 3 8C3 10.8 5.2 13 8 13C8.6 13 9 13.4 9 14C9 14.6 8.6 15 8 15C4.1 15 1 11.9 1 8C1 4.1 4.1 1 8 1Z" fill="url(#paint0_linear_507_13639)"/>
<defs>
<linearGradient id="paint0_linear_507_13639" x1="9.83874" y1="3.8348" x2="3.59127" y2="11.362" gradientUnits="userSpaceOnUse">
<stop stop-color="#4066D4" stop-opacity="0"/>
<stop offset="1" stop-color="#4066D4"/>
</linearGradient>
</defs>
</svg>
