<svg width="24" height="24" viewBox="0 0 24 24" fill="none" xmlns="http://www.w3.org/2000/svg">
<path fill-rule="evenodd" clip-rule="evenodd" d="M7 5.56602C7 5.21475 7.1843 4.88925 7.4855 4.70852L11.4855 2.30852C11.8022 2.11851 12.1978 2.11851 12.5145 2.30852L16.5145 4.70852C16.8157 4.88925 17 5.21475 17 5.56602V10.166C17.1781 10.166 17.3562 10.2135 17.5145 10.3085L21.5145 12.7085C21.8157 12.8892 22 13.2148 22 13.566V18.4336C22 18.7849 21.8157 19.1104 21.5145 19.2911L17.5145 21.6911C17.1978 21.8811 16.8022 21.8811 16.4855 21.6911L12 18.9998L7.5145 21.6911C7.19781 21.8811 6.80219 21.8811 6.4855 21.6911L2.4855 19.2911C2.1843 19.1104 2 18.7849 2 18.4336V13.566C2 13.2148 2.1843 12.8892 2.4855 12.7085L6.4855 10.3085C6.64385 10.2135 6.82192 10.166 7 10.166V5.56602Z" fill="#4066D4"/>
<path fill-rule="evenodd" clip-rule="evenodd" d="M6.99935 11.5L10.3327 13.5L6.99935 15.5L3.66602 13.5L6.99935 11.5Z" fill="white"/>
<path fill-rule="evenodd" clip-rule="evenodd" d="M16.9993 11.5L20.3327 13.5L16.9993 15.5L13.666 13.5L16.9993 11.5Z" fill="white"/>
<path fill-rule="evenodd" clip-rule="evenodd" d="M11.9993 3.5L15.3327 5.5L11.9993 7.5L8.66602 5.5L11.9993 3.5Z" fill="white"/>
</svg>
