<svg width="24" height="24" viewBox="0 0 24 24" fill="none" xmlns="http://www.w3.org/2000/svg">
<path fill-rule="evenodd" clip-rule="evenodd" d="M6 10C6 6.68629 8.68629 4 12 4C15.3137 4 18 6.68629 18 10C18 10.0333 17.9997 10.0666 17.9992 10.0999C20.2818 10.5628 22 12.5808 22 15C22 17.7614 19.7614 20 17 20C14.5808 20 12.5628 18.2818 12.0999 15.9992C12.0666 15.9997 12.0333 16 12 16C11.9667 16 11.9334 15.9997 11.9001 15.9992C11.4372 18.2818 9.41925 20 7 20C4.23858 20 2 17.7614 2 15C2 12.5808 3.71817 10.5628 6.00081 10.0999C6.00027 10.0666 6 10.0333 6 10Z" fill="#A0B4D6"/>
<rect x="7" y="13" width="10" height="7" fill="#A0B4D6"/>
<path fill-rule="evenodd" clip-rule="evenodd" d="M12.3274 11.2832C12.1395 11.1205 11.8606 11.1205 11.6728 11.2832L7.81772 14.6217C7.46777 14.9248 7.6821 15.4997 8.14505 15.4997H10.0001V19.9997H14.0001V15.4997H15.8551C16.3181 15.4997 16.5324 14.9248 16.1824 14.6217L12.3274 11.2832Z" fill="white"/>
</svg>
